<?xml version="1.0" encoding="utf-8"?>
<!-- Generator: Adobe Illustrator 27.3.1, SVG Export Plug-In . SVG Version: 6.00 Build 0)  -->
<svg version="1.1" id="Warstwa_1" xmlns:serif="http://www.serif.com/"
	 xmlns="http://www.w3.org/2000/svg" xmlns:xlink="http://www.w3.org/1999/xlink" x="0px" y="0px" viewBox="0 0 600 600"
	 style="enable-background:new 0 0 600 600;" xml:space="preserve">
<style type="text/css">
	.st0{fill:#F23E17;}
	.st1{fill:url(#SVGID_1_);}
	.st2{fill:url(#SVGID_00000125595548402035117740000009675881684225218699_);}
	.st3{fill:url(#SVGID_00000165220164830767400630000017219154074183113878_);}
	.st4{fill:url(#SVGID_00000030447805706059138490000002182311877295654790_);}
	.st5{fill:url(#SVGID_00000042017139078453133680000004005198284106450348_);}
	.st6{fill:url(#SVGID_00000056404614377167951920000014552320503963696570_);}
</style>
<g>
	<path class="st0" d="M420.3,222.8L297.4,81.2l-121,144.9l-49,122.9l52.1,121l122.6,49l121.3-52.1l49-122.6L420.3,222.8z
		 M355.5,403.4l-55.8,24L243.5,405l-23.8-55.3l22.7-56.5l55.3-23.8l55.9,22.4l24,56L355.5,403.4z"/>
	<g>
		
			<linearGradient id="SVGID_1_" gradientUnits="userSpaceOnUse" x1="285.1846" y1="1694.2526" x2="420.6758" y2="1928.9302" gradientTransform="matrix(1 0 0 1 0 -1606)">
			<stop  offset="0" style="stop-color:#F15A29"/>
			<stop  offset="0.2278" style="stop-color:#F15428"/>
			<stop  offset="0.5464" style="stop-color:#EF4127"/>
			<stop  offset="0.9172" style="stop-color:#ED2425"/>
			<stop  offset="1" style="stop-color:#ED1C24"/>
		</linearGradient>
		<polygon class="st1" points="297.4,81.2 420.3,222.8 423.9,231.3 377.6,347.8 274.8,108.2 		"/>
		
			<linearGradient id="SVGID_00000143609015851945153910000007659408617467879358_" gradientUnits="userSpaceOnUse" x1="413.95" y1="1837.3" x2="413.95" y2="2009.4" gradientTransform="matrix(1 0 0 1 0 -1606)">
			<stop  offset="0" style="stop-color:#F15A29"/>
			<stop  offset="1" style="stop-color:#ED1C24"/>
		</linearGradient>
		<polygon style="fill:url(#SVGID_00000143609015851945153910000007659408617467879358_);" points="423.9,231.3 472.4,344.3 
			468.2,354.9 355.5,403.4 		"/>
		
			<linearGradient id="SVGID_00000054952697140471631760000012571987935208846721_" gradientUnits="userSpaceOnUse" x1="468.2" y1="2040.4" x2="219.7" y2="2040.4" gradientTransform="matrix(1 0 0 1 0 -1606)">
			<stop  offset="0" style="stop-color:#F15A29"/>
			<stop  offset="0.2594" style="stop-color:#F04F28"/>
			<stop  offset="0.714" style="stop-color:#EE3226"/>
			<stop  offset="1" style="stop-color:#ED1C24"/>
		</linearGradient>
		<polygon style="fill:url(#SVGID_00000054952697140471631760000012571987935208846721_);" points="468.2,354.9 355.5,403.4 
			299.6,427.4 243.5,405 219.7,349.8 219.7,486.1 302.1,519 423.5,466.9 		"/>
		
			<linearGradient id="SVGID_00000136380581311356004660000006965053848245287870_" gradientUnits="userSpaceOnUse" x1="154.7182" y1="2033.0767" x2="278.4499" y2="1961.6403" gradientTransform="matrix(1 0 0 1 0 -1606)">
			<stop  offset="0" style="stop-color:#F15A29"/>
			<stop  offset="7.694709e-02" style="stop-color:#F15328"/>
			<stop  offset="0.4514" style="stop-color:#EF3526"/>
			<stop  offset="0.7722" style="stop-color:#ED2325"/>
			<stop  offset="1" style="stop-color:#ED1C24"/>
		</linearGradient>
		<polygon style="fill:url(#SVGID_00000136380581311356004660000006965053848245287870_);" points="242.4,293.2 128.8,345.5 
			127.4,349 179.5,470 219.7,486.1 219.7,349.8 		"/>
		
			<linearGradient id="SVGID_00000026862305538489260740000018272341179252086938_" gradientUnits="userSpaceOnUse" x1="213.25" y1="1951.5" x2="213.25" y2="1832.1" gradientTransform="matrix(1 0 0 1 0 -1606)">
			<stop  offset="0" style="stop-color:#F15A29"/>
			<stop  offset="1" style="stop-color:#ED1C24"/>
		</linearGradient>
		<polygon style="fill:url(#SVGID_00000026862305538489260740000018272341179252086938_);" points="176.4,226.1 297.7,269.4 
			242.4,293.2 128.8,345.5 		"/>
		
			<linearGradient id="SVGID_00000063596104795206918640000001448434376698368432_" gradientUnits="userSpaceOnUse" x1="199.5482" y1="1872.194" x2="324.4004" y2="1800.1108" gradientTransform="matrix(1 0 0 1 0 -1606)">
			<stop  offset="0" style="stop-color:#F15A29"/>
			<stop  offset="1" style="stop-color:#ED1C24"/>
		</linearGradient>
		<polygon style="fill:url(#SVGID_00000063596104795206918640000001448434376698368432_);" points="176.4,226.1 297.7,269.4 
			353.6,291.8 274.8,108.2 		"/>
	</g>
</g>
</svg>
